<?xml version="1.0" standalone="no"?>
<!DOCTYPE svg PUBLIC "-//W3C//DTD SVG 20010904//EN"
 "http://www.w3.org/TR/2001/REC-SVG-20010904/DTD/svg10.dtd">
<svg version="1.0" xmlns="http://www.w3.org/2000/svg"
 width="512.000000pt" height="512.000000pt" viewBox="0 0 512.000000 512.000000"
 preserveAspectRatio="xMidYMid meet">
<metadata>
Created by potrace 1.14, written by Peter Selinger 2001-2017
</metadata>
<g transform="translate(0.000000,512.000000) scale(0.100000,-0.100000)"
fill="#000000" stroke="none">
<path d="M3260 4509 c-41 -20 -77 -37 -80 -37 -3 0 -7 -1 -10 -2 -44 -17 -219
-13 -232 5 -5 6 -8 6 -8 -1 0 -7 -25 -10 -65 -10 -36 1 -65 -1 -65 -4 0 -3
-12 -6 -27 -7 -32 -2 -88 -10 -88 -13 0 -1 -13 -4 -30 -6 -44 -7 -165 -56
-165 -67 0 -5 -7 -7 -15 -3 -8 3 -15 2 -15 -3 0 -4 -16 -16 -35 -27 -19 -10
-35 -22 -35 -26 0 -3 -9 -10 -21 -13 -21 -7 -45 -24 -81 -57 -10 -10 -18 -16
-18 -13 0 9 -42 -35 -94 -97 -27 -32 -45 -58 -41 -58 5 0 1 -8 -7 -17 -19 -24
-60 -126 -47 -117 8 4 8 1 1 -12 -5 -11 -10 -32 -10 -48 1 -30 -15 -46 -44
-46 -10 0 -18 -4 -18 -10 0 -5 -6 -10 -13 -10 -8 0 -33 -18 -56 -40 -23 -22
-39 -40 -36 -40 4 0 -3 -13 -15 -30 -12 -16 -18 -30 -14 -30 3 0 1 -7 -6 -15
-6 -8 -9 -19 -5 -25 4 -6 2 -17 -4 -24 -6 -7 -13 -30 -17 -51 -3 -20 -7 -46
-9 -56 -7 -34 -19 -154 -19 -191 0 -21 -3 -38 -6 -38 -8 0 5 -448 13 -456 3
-4 2 -16 -3 -29 -6 -15 -4 -27 3 -34 9 -9 9 -14 -2 -20 -8 -5 -9 -11 -3 -15 5
-3 10 -32 12 -63 4 -114 5 -123 11 -123 7 0 2 -57 -6 -71 -4 -5 0 -9 7 -9 9 0
9 -3 2 -8 -11 -7 -15 -162 -4 -162 3 0 6 -8 7 -17 2 -55 8 -93 13 -93 6 0 8
-8 12 -50 1 -11 5 -20 9 -20 8 0 33 -60 30 -72 0 -5 3 -8 9 -8 5 0 10 -6 10
-12 1 -16 92 -155 120 -183 11 -12 20 -24 20 -29 0 -4 23 -30 50 -58 28 -28
50 -55 50 -61 0 -6 -3 -7 -6 -4 -4 4 -15 -3 -26 -15 -15 -18 -22 -20 -43 -10
-19 9 -25 9 -25 -1 0 -8 -3 -8 -9 2 -5 7 -14 10 -20 7 -6 -4 -11 -3 -11 2 0 5
-13 8 -30 7 -16 -1 -40 3 -52 9 -35 18 -97 34 -157 41 -30 4 -63 9 -75 11 -31
6 -88 16 -111 20 -11 1 -21 3 -22 4 -2 2 -7 4 -13 5 -5 1 -11 3 -12 4 -2 2
-14 5 -28 7 -13 2 -27 8 -30 12 -3 4 -14 7 -25 6 -11 0 -29 4 -40 10 -18 9
-35 13 -72 18 -7 1 -13 4 -13 8 0 4 -6 7 -12 7 -21 1 -62 11 -89 21 -15 6 -30
8 -33 5 -3 -4 -6 -2 -6 3 0 5 -11 11 -26 12 -14 1 -34 7 -45 13 -18 9 -39 15
-86 23 -7 1 -15 5 -19 8 -3 4 -12 4 -20 1 -8 -3 -14 0 -14 5 0 6 -9 9 -20 7
-24 -5 -49 32 -28 40 18 7 72 2 78 -7 3 -4 15 -9 25 -11 20 -4 71 -16 90 -22
6 -1 15 -4 20 -5 6 -2 33 -11 60 -20 28 -9 53 -18 58 -19 4 0 8 -1 10 -2 1 0
9 -2 17 -4 8 -2 39 -11 69 -19 30 -8 58 -13 63 -10 4 3 8 0 8 -5 0 -6 10 -11
23 -11 13 0 27 -3 31 -7 4 -4 24 -8 46 -9 28 -1 45 5 64 23 14 13 27 27 27 31
11 60 -3 107 -36 117 -11 4 -23 7 -27 6 -5 -1 -8 3 -8 8 0 8 -91 38 -99 32 -2
-1 -7 2 -10 7 -4 6 -18 12 -33 14 -15 2 -30 7 -33 11 -3 4 -2 5 1 2 9 -6 64
27 64 39 0 5 7 18 17 28 12 14 13 18 3 18 -11 0 -11 3 -2 12 8 8 8 17 1 30 -8
16 -5 19 21 24 16 4 30 10 30 15 0 4 9 10 19 14 45 14 61 116 26 155 -13 15
-14 20 -3 27 27 17 51 53 54 83 2 18 6 36 9 41 4 5 1 9 -4 9 -6 0 -11 6 -11
13 -1 11 -34 57 -42 57 -2 0 -28 23 -58 50 -30 28 -80 62 -112 77 -44 20 -58
32 -62 52 -8 36 -1 108 11 123 29 37 64 114 67 150 7 73 -37 160 -100 195 -16
9 -24 9 -33 0 -9 -9 -14 -9 -19 0 -6 9 -16 6 -37 -11 -29 -24 -33 -35 -39
-107 -1 -19 -6 -40 -9 -46 -4 -6 -1 -14 5 -16 10 -4 10 -6 1 -6 -7 -1 -13 -8
-13 -17 0 -22 -56 -74 -106 -99 -21 -11 -42 -24 -46 -30 -5 -6 -8 -4 -8 4 0
11 -4 9 -15 -5 -8 -10 -15 -16 -15 -12 0 4 -26 -6 -57 -24 -32 -17 -83 -44
-113 -60 -30 -15 -64 -34 -75 -41 -29 -18 -95 -85 -95 -97 0 -6 -7 -10 -15
-10 -8 0 -14 -5 -13 -12 2 -9 -20 -13 -72 -15 -41 -1 -82 -4 -91 -6 -18 -3
-88 -47 -76 -47 5 0 -1 -12 -12 -26 -12 -15 -21 -32 -21 -39 0 -11 -51 -39
-65 -36 -3 1 -12 -4 -19 -11 -7 -7 -28 -24 -47 -37 -47 -33 -109 -111 -109
-139 0 -13 -4 -21 -9 -18 -8 5 -20 -23 -27 -64 -2 -8 -6 -31 -10 -50 -9 -45
-9 -97 0 -190 4 -41 8 -82 8 -90 0 -17 -10 -105 -12 -105 -1 0 -3 -19 -4 -42
-1 -24 1 -43 4 -43 4 0 5 -11 2 -25 -2 -13 -1 -33 3 -42 5 -10 7 -23 6 -30 -1
-6 3 -14 9 -18 5 -3 10 -15 10 -26 0 -10 5 -19 10 -19 6 0 10 -9 10 -19 0 -22
73 -124 119 -166 19 -16 43 -39 55 -50 11 -11 27 -20 35 -22 8 -1 17 -6 20
-11 8 -12 54 -37 64 -34 4 1 7 -3 7 -9 0 -5 4 -8 9 -4 5 3 12 1 16 -5 4 -6 10
-8 15 -5 4 3 11 -2 14 -11 3 -8 10 -13 16 -9 5 3 20 -1 33 -10 13 -8 27 -12
30 -8 4 3 7 1 7 -5 0 -7 3 -11 8 -11 4 1 10 0 15 -1 4 -1 12 -4 17 -5 6 -1 11
-3 13 -4 1 -2 13 -4 27 -7 14 -2 32 -7 40 -11 8 -3 26 -8 40 -10 13 -2 27 -7
30 -11 3 -4 16 -7 30 -7 14 0 31 -4 39 -10 8 -5 16 -9 18 -7 1 1 4 2 6 1 3 -1
29 -7 57 -12 14 -3 44 -10 67 -15 23 -5 44 -7 48 -4 3 3 5 1 5 -4 0 -5 11 -11
24 -12 13 -1 45 -11 70 -22 26 -11 54 -20 62 -20 8 0 14 -4 14 -10 0 -5 10
-10 21 -10 46 0 189 -105 189 -139 0 -6 5 -11 10 -11 6 0 10 -7 10 -15 0 -8 9
-31 20 -50 11 -20 18 -40 15 -45 -3 -4 0 -10 5 -12 6 -2 12 -17 14 -33 2 -17
5 -30 6 -30 1 0 3 -7 5 -15 2 -8 12 -53 22 -100 11 -47 19 -93 17 -103 -1 -9
1 -17 5 -17 6 0 10 -36 14 -137 1 -29 5 -53 8 -53 4 0 4 -15 0 -33 -5 -18 -5
-41 -1 -52 4 -11 2 -26 -4 -34 -8 -11 -8 -13 1 -8 8 5 11 -11 9 -58 l-3 -65
1447 0 1447 0 -4 28 c-2 15 -6 52 -9 82 -7 74 -12 115 -15 115 -1 0 -3 16 -4
35 -2 19 -4 36 -5 38 -6 6 -24 115 -21 126 1 4 -2 13 -7 20 -4 6 -8 20 -8 31
1 11 -3 23 -7 26 -5 3 -10 19 -11 35 -2 16 -6 36 -9 44 -3 8 -9 29 -13 45 -4
17 -8 35 -10 40 -14 58 -57 163 -70 172 -9 7 -14 19 -11 28 4 8 2 15 -3 15 -6
0 -10 6 -10 14 0 8 -7 22 -16 30 -8 9 -13 16 -9 16 4 0 -15 20 -41 45 -25 25
-50 45 -55 45 -5 0 -9 7 -9 15 0 8 -6 15 -14 15 -7 0 -24 10 -38 23 -14 13
-39 29 -57 36 -32 14 -39 25 -21 36 20 12 10 63 -19 94 -15 16 -26 33 -23 36
3 3 0 5 -8 5 -15 0 -94 70 -96 85 0 5 -2 15 -2 21 -2 13 -92 109 -101 108 -15
-2 -41 9 -41 18 0 5 -4 6 -10 3 -5 -3 -10 -1 -10 6 0 7 -3 9 -7 6 -3 -4 -12
-2 -19 4 -8 6 -20 9 -28 6 -8 -3 -16 -1 -18 5 -4 11 -21 15 -80 19 -16 1 -28
5 -28 8 0 4 -15 8 -32 9 -31 1 -70 8 -75 12 -4 3 -37 7 -67 9 -14 0 -32 8 -40
17 -9 8 -16 13 -16 9 0 -3 -9 -1 -20 5 -11 6 -17 17 -14 25 5 13 84 60 84 50
0 -9 188 97 235 132 6 5 39 28 75 53 36 24 67 48 68 52 2 4 9 8 16 8 7 0 21 9
31 20 10 11 24 20 32 20 7 0 13 5 13 11 0 5 5 7 10 4 6 -3 10 -2 10 4 0 10 74
8 120 -3 14 -3 36 -1 50 6 30 15 85 58 74 58 -4 0 0 6 8 12 37 28 114 213 122
291 3 23 6 44 7 47 5 12 4 90 -1 90 -5 0 -9 18 -12 58 -1 6 -5 12 -10 12 -5 0
-6 6 -1 13 4 6 9 23 11 37 5 36 10 65 12 65 1 0 4 14 5 30 2 17 5 50 9 75 3
25 8 74 11 110 9 100 11 112 27 150 17 41 18 43 18 71 0 13 4 18 13 13 9 -5 9
-4 0 6 -8 9 -9 20 -2 37 5 14 7 28 4 33 -3 5 -2 11 3 14 4 3 7 44 6 93 -3 91
-6 115 -23 172 -6 19 -8 38 -5 42 3 5 1 9 -5 9 -6 0 -8 7 -5 15 4 8 1 15 -5
15 -7 0 -11 6 -10 13 3 16 -48 127 -68 150 -9 9 -13 17 -9 17 4 0 -2 13 -13
29 -12 16 -21 34 -21 40 0 6 -4 11 -8 11 -5 0 -17 18 -27 40 -10 22 -22 40
-27 40 -4 0 -8 7 -8 16 0 17 -27 70 -47 91 -6 7 -15 23 -19 36 -4 12 -12 25
-18 29 -6 4 -11 11 -11 15 0 10 -57 87 -67 91 -5 2 -8 9 -8 14 0 13 -4 17 -94
113 -36 38 -66 73 -66 77 0 5 -6 8 -14 8 -7 0 -26 11 -42 25 -43 38 -48 41
-82 59 -18 9 -32 13 -32 10 0 -4 -8 1 -19 10 -10 9 -22 16 -27 15 -5 -1 -22 1
-37 6 -38 10 -57 -7 -39 -36 11 -17 11 -20 0 -13 -10 6 -10 4 1 -9 7 -10 9
-17 3 -17 -6 0 -9 -11 -7 -25 1 -14 -1 -25 -6 -25 -4 0 -11 -9 -14 -20 -14
-43 -23 -17 -21 55 2 46 -1 78 -8 83 -6 5 -43 -8 -86 -29z"/>
</g>
</svg>
